<mxfile host="app.diagrams.net" modified="2024-05-27T02:06:37.141Z" agent="Mozilla/5.0 (Windows NT 10.0; Win64; x64) AppleWebKit/537.36 (KHTML, like Gecko) Chrome/125.0.0.0 Safari/537.36 Edg/125.0.0.0" version="24.4.8" etag="UkkWIVsQZYD2z5f9QgnR" type="github">
  <diagram name="Page-1" id="kVoELXjSLk2-lcb3_9ag">
    <mxGraphModel>
      <root>
        <mxCell id="0" />
        <mxCell id="1" parent="0" />
      </root>
    </mxGraphModel>
  </diagram>
</mxfile>
